<?xml version="1.0" encoding="UTF-8" standalone="no"?>
<svg
   xmlns:dc="http://purl.org/dc/elements/1.1/"
   xmlns:cc="http://creativecommons.org/ns#"
   xmlns:rdf="http://www.w3.org/1999/02/22-rdf-syntax-ns#"
   xmlns:svg="http://www.w3.org/2000/svg"
   xmlns="http://www.w3.org/2000/svg"
   xmlns:sodipodi="http://sodipodi.sourceforge.net/DTD/sodipodi-0.dtd"
   xmlns:inkscape="http://www.inkscape.org/namespaces/inkscape"
   version="1.1"
   id="Ebene_1"
   x="0px"
   y="0px"
   viewBox="0 0 81.259842 81.259841"
   xml:space="preserve"
   sodipodi:docname="icon.svg"
   width="81.259842"
   height="81.259842"
   inkscape:version="1.0 (4035a4fb49, 2020-05-01)"><metadata
   id="metadata30"><rdf:RDF><cc:Work
       rdf:about=""><dc:format>image/svg+xml</dc:format><dc:type
         rdf:resource="http://purl.org/dc/dcmitype/StillImage" /><dc:title /></cc:Work></rdf:RDF></metadata><defs
   id="defs28"><marker
   inkscape:stockid="TriangleInL"
   orient="auto"
   refY="0.0"
   refX="0.0"
   id="TriangleInL"
   style="overflow:visible"
   inkscape:isstock="true"><path
     id="path1586"
     d="M 5.77,0.0 L -2.88,5.0 L -2.88,-5.0 L 5.77,0.0 z "
     style="fill-rule:evenodd;stroke:#ffed00;stroke-width:1pt;stroke-opacity:1;fill:#ffed00;fill-opacity:1"
     transform="scale(-0.8)" /></marker><marker
   inkscape:stockid="TriangleOutL"
   orient="auto"
   refY="0.0"
   refX="0.0"
   id="TriangleOutL"
   style="overflow:visible"
   inkscape:isstock="true"><path
     id="path1595"
     d="M 5.77,0.0 L -2.88,5.0 L -2.88,-5.0 L 5.77,0.0 z "
     style="fill-rule:evenodd;stroke:#ffed00;stroke-width:1pt;stroke-opacity:1;fill:#ffed00;fill-opacity:1"
     transform="scale(0.8)" /></marker>
	
	
	
	
</defs><sodipodi:namedview
   inkscape:snap-nodes="false"
   inkscape:document-rotation="0"
   pagecolor="#ffffff"
   bordercolor="#666666"
   borderopacity="1"
   objecttolerance="10"
   gridtolerance="10"
   guidetolerance="10"
   inkscape:pageopacity="1"
   inkscape:pageshadow="2"
   inkscape:window-width="1920"
   inkscape:window-height="1017"
   id="namedview26"
   showgrid="true"
   fit-margin-top="0"
   fit-margin-left="0"
   fit-margin-right="0"
   fit-margin-bottom="0"
   inkscape:zoom="2.5768263"
   inkscape:cx="-35.808336"
   inkscape:cy="78.844408"
   inkscape:window-x="1912"
   inkscape:window-y="-8"
   inkscape:window-maximized="1"
   inkscape:current-layer="layer10"
   inkscape:snap-others="false"><inkscape:grid
     originy="12.283466"
     originx="0.94488084"
     spacingy="1.8897638"
     gridanglez="45"
     gridanglex="45"
     id="grid835"
     type="axonomgrid"
     visible="false" /></sodipodi:namedview>
<style
   type="text/css"
   id="style2">
	.st0{fill:#9F3C76;}
	.st1{fill:#DC7098;}
	.st2{fill:#FFFFFF;}
	.st3{fill:none;stroke:#FFFFFF;stroke-miterlimit:10;}
	.st4{opacity:0.5;fill:#FFFFFF;}
</style>

<g
   sodipodi:insensitive="true"
   style="display:inline"
   inkscape:label="kasten"
   id="layer4"
   inkscape:groupmode="layer"
   transform="translate(0.94488084,12.283466)"><rect
     rx="12.348449"
     ry="12.348449"
     y="-12.283466"
     x="-0.94488084"
     height="81.259842"
     width="81.259842"
     id="rect861"
     style="fill:#00539f;fill-opacity:1;stroke:none;stroke-width:0.756;stroke-linejoin:round;stroke-miterlimit:1.7" /></g><g
   inkscape:label="omega"
   id="layer10"
   inkscape:groupmode="layer"><g
     transform="matrix(0.469452,0,0,0.469452,19.150144,19.280183)"
     id="g288"
     style="fill:#ffffff;fill-opacity:1;stroke-width:7.02308;stroke-miterlimit:4;stroke-dasharray:none"><g
       style="fill:#ffffff;fill-opacity:1;stroke-width:7.02308;stroke-miterlimit:4;stroke-dasharray:none"
       id="g270"><path
         style="fill:#ffffff;fill-opacity:1;stroke-width:7.02308;stroke-miterlimit:4;stroke-dasharray:none"
         d="m 10.22,65.764 c 0.546,0 1.093,-0.208 1.511,-0.625 0.837,-0.835 0.839,-2.19 0.004,-3.026 C 7.472,57.84 5.122,52.394 5.119,46.779 5.111,41.171 7.451,35.728 11.706,31.452 12.539,30.614 12.537,29.259 11.699,28.426 10.862,27.591 9.505,27.595 8.672,28.433 3.611,33.518 0.83,40.035 0.839,46.784 c 0.004,6.754 2.798,13.271 7.867,18.352 0.417,0.418 0.965,0.628 1.514,0.628 z"
         id="path256" /><path
         style="fill:#ffffff;fill-opacity:1;stroke-width:7.02308;stroke-miterlimit:4;stroke-dasharray:none"
         d="m 17.731,35.155 c -0.839,-0.833 -2.193,-0.831 -3.026,0.009 -3.201,3.218 -4.961,7.345 -4.957,11.619 0.002,4.271 1.767,8.393 4.968,11.607 0.418,0.42 0.967,0.63 1.516,0.63 0.547,0 1.093,-0.208 1.511,-0.624 0.837,-0.834 0.84,-2.189 0.006,-3.026 -2.398,-2.408 -3.72,-5.458 -3.721,-8.59 -0.003,-3.135 1.315,-6.188 3.711,-8.599 0.834,-0.838 0.83,-2.193 -0.008,-3.026 z"
         id="path258" /><path
         style="fill:#ffffff;fill-opacity:1;stroke-width:7.02308;stroke-miterlimit:4;stroke-dasharray:none"
         d="m 79.808,28.43 c -0.838,0.834 -0.842,2.188 -0.007,3.026 4.257,4.279 6.598,9.722 6.589,15.331 -0.002,5.612 -2.35,11.057 -6.612,15.33 -0.835,0.836 -0.833,2.191 0.004,3.026 0.418,0.417 0.965,0.625 1.511,0.625 0.549,0 1.097,-0.21 1.515,-0.629 5.068,-5.08 7.861,-11.598 7.863,-18.348 0.01,-6.748 -2.773,-13.266 -7.835,-18.354 -0.835,-0.838 -2.191,-0.841 -3.028,-0.007 z"
         id="path260" /><path
         style="fill:#ffffff;fill-opacity:1;stroke-width:7.02308;stroke-miterlimit:4;stroke-dasharray:none"
         d="m 73.77,58.4 c 0.418,0.416 0.964,0.624 1.51,0.624 0.55,0 1.099,-0.21 1.517,-0.63 3.2,-3.213 4.962,-7.334 4.964,-11.604 0.005,-4.275 -1.754,-8.402 -4.954,-11.621 -0.836,-0.838 -2.19,-0.842 -3.026,-0.009 -0.839,0.833 -0.843,2.188 -0.01,3.026 2.397,2.41 3.714,5.463 3.71,8.6 -10e-4,3.132 -1.322,6.182 -3.717,8.588 -0.834,0.837 -0.831,2.192 0.006,3.026 z"
         id="path262" /><path
         style="fill:#ffffff;fill-opacity:1;stroke-width:7.02308;stroke-miterlimit:4;stroke-dasharray:none"
         d="m 34.805,41.525 c 0.336,0 0.668,-0.043 0.962,-0.123 0.201,-0.051 5.002,-1.255 9.786,-1.263 4.801,0 9.646,1.218 9.695,1.231 1.251,0.319 2.604,-0.017 3.573,-0.893 0.938,-0.849 1.431,-2.114 1.319,-3.377 L 59.242,26.53 C 59.116,25.015 58.18,23.715 56.79,23.132 56.298,22.929 51.799,21.153 45.479,21.153 c -6.487,0.012 -11.12,1.94 -11.311,2.022 -1.376,0.58 -2.308,1.882 -2.431,3.397 l -0.871,10.584 c -0.099,1.266 0.397,2.523 1.333,3.367 0.721,0.646 1.647,1.002 2.606,1.002 z m 1.188,-14.47 c 0.798,-0.305 4.516,-1.613 9.548,-1.622 4.969,0 8.643,1.282 9.448,1.587 l 0.856,10.09 c -1.413,-0.328 -5.793,-1.253 -10.296,-1.253 -4.51,0.008 -8.893,0.937 -10.387,1.287 z"
         id="path264" /><path
         style="fill:#ffffff;fill-opacity:1;stroke-width:7.02308;stroke-miterlimit:4;stroke-dasharray:none"
         d="m 57.702,56.929 c -0.243,-0.099 -6.026,-2.423 -12.17,-2.423 -6.173,0.01 -11.926,2.367 -12.155,2.462 -1.672,0.682 -2.679,2.437 -2.45,4.271 l 0.89,7.043 c 0.18,1.443 1.111,2.679 2.424,3.225 0.194,0.081 4.821,1.986 11.267,1.986 h 0.056 c 6.31,-0.011 10.813,-1.813 11.312,-2.021 1.313,-0.553 2.237,-1.792 2.41,-3.227 l 0.875,-7.052 c 0.228,-1.83 -0.784,-3.584 -2.459,-4.264 z m -2.648,10.662 c -0.821,0.315 -4.496,1.614 -9.498,1.623 h -0.048 c -4.963,0 -8.664,-1.292 -9.46,-1.594 l -0.855,-6.766 c 0.975,-0.377 5.594,-2.059 10.344,-2.066 4.729,0 9.36,1.653 10.358,2.031 z"
         id="path266" /><path
         style="fill:#ffffff;fill-opacity:1;stroke-width:7.02308;stroke-miterlimit:4;stroke-dasharray:none"
         d="m 67.278,33.875 c 0.595,0 1.187,-0.247 1.611,-0.73 0.779,-0.889 0.689,-2.241 -0.199,-3.02 L 65.312,27.166 C 65.158,27.031 64.988,26.932 64.812,26.849 64.487,22.186 64.169,18.03 64.14,17.662 63.599,11.824 58.388,7.075 52.504,7.075 L 38.396,7.098 c -5.872,0.007 -11.079,4.773 -11.61,10.679 -0.059,0.922 -0.32,4.993 -0.595,9.393 l -3.371,2.957 c -0.889,0.78 -0.977,2.132 -0.198,3.021 0.423,0.482 1.015,0.729 1.61,0.729 0.501,0 1.004,-0.175 1.41,-0.531 l 0.18,-0.158 c -0.202,3.369 -0.356,6.087 -0.356,6.588 l 0.061,33.575 c 0.004,2.863 1.189,5.541 3.337,7.542 2.069,1.926 4.791,2.988 7.665,2.988 h 0.018 l 18.048,-0.028 c 2.93,-0.006 5.689,-1.157 7.771,-3.243 2.075,-2.081 3.218,-4.843 3.218,-7.78 L 65.533,39.643 C 65.53,38.389 65.393,35.77 65.206,32.765 l 0.664,0.582 c 0.405,0.354 0.908,0.528 1.408,0.528 z m -7.943,43.711 c -1.274,1.276 -2.96,1.981 -4.748,1.984 l -18.046,0.028 h -0.013 c -1.787,0 -3.473,-0.653 -4.747,-1.839 -1.271,-1.184 -1.972,-2.751 -1.974,-4.417 L 29.747,39.77 c 0,-0.953 0.785,-13.511 1.307,-21.665 0.334,-3.705 3.63,-6.723 7.35,-6.727 l 14.119,-0.023 c 3.712,0 7.012,3.006 7.353,6.668 0.014,0.178 1.367,17.861 1.376,21.626 l 0.051,33.183 c -10e-4,1.793 -0.699,3.481 -1.968,4.754 z"
         id="path268" /></g></g><g
     style="fill:#ffed00;fill-opacity:1;stroke-width:0.486476"
     transform="matrix(2.1692724,0,0,1.9478841,-4.8485354,-10.633663)"
     id="g1152"><g
       id="layer2-5"
       style="display:none;fill:#ffed00;fill-opacity:1;stroke-width:0.486476"><rect
         rx="0.09830492"
         width="31.949493"
         height="34.973034"
         ry="0.10947785"
         x="5.0068707"
         y="9.2631512"
         id="rect3211"
         style="display:inline;overflow:visible;visibility:visible;fill:#ffed00;fill-opacity:1;fill-rule:nonzero;stroke:#000000;stroke-width:0.034207;stroke-linecap:butt;stroke-linejoin:miter;stroke-miterlimit:4;stroke-dasharray:none;stroke-dashoffset:0;stroke-opacity:1;marker:none;marker-start:none;marker-mid:none;marker-end:none;enable-background:accumulate" /><rect
         rx="0.14939705"
         width="42.519684"
         height="53.149605"
         ry="0.16637687"
         x="-3.1811524e-06"
         y="-1.6357421e-06"
         id="rect2383"
         style="display:inline;overflow:visible;visibility:visible;fill:#ffed00;fill-opacity:1;fill-rule:nonzero;stroke:#000000;stroke-width:0.0486476;stroke-linecap:butt;stroke-linejoin:miter;stroke-miterlimit:4;stroke-dasharray:none;stroke-dashoffset:0;stroke-opacity:1;marker:none;marker-start:none;marker-mid:none;marker-end:none;enable-background:accumulate" /></g><g
       id="layer3-7"
       style="display:inline;fill:#ffed00;fill-opacity:1;stroke-width:0.486476"><path
         d="m 37.476562,39.85273 v 4.171875 h -14.0625 V 39.85273 c 2.765602,-1.51562 4.92185,-3.570305 6.46875,-6.164063 1.546847,-2.593737 2.320283,-5.468734 2.320313,-8.625 -3e-5,-3.749977 -1.031279,-6.757786 -3.09375,-9.023437 -2.062524,-2.265595 -4.781272,-3.398406 -8.15625,-3.398438 -3.375015,3.2e-5 -6.101575,1.140656 -8.179687,3.421875 -2.062509,2.265651 -3.0937576,5.265648 -3.0937505,9 -7.1e-6,3.156266 0.7734295,6.031263 2.3203125,8.625 1.562489,2.593758 3.734362,4.648443 6.515625,6.164063 v 4.171875 H 4.453125 V 39.85273 h 7.476563 c -2.4687573,-2.171869 -4.273443,-4.421867 -5.414063,-6.75 -1.1250028,-2.328112 -1.6875022,-4.929672 -1.6875,-7.804688 -2.2e-6,-4.968726 1.4999963,-8.992159 4.5,-12.070312 2.984365,-3.078091 6.859361,-4.6171523 11.625,-4.6171877 4.734352,3.54e-5 8.609348,1.5390967 11.625,4.6171877 2.999967,3.062528 4.499966,7.007836 4.5,11.835937 -3.4e-5,3.031266 -0.554721,5.703139 -1.664063,8.015625 -1.109406,2.312509 -2.921904,4.570319 -5.4375,6.773438 h 7.5"
         id="text4143"
         style="font-style:normal;font-variant:normal;font-weight:normal;font-stretch:normal;font-size:48px;line-height:100%;font-family:'DejaVu Sans';-inkscape-font-specification:'DejaVu Sans';text-align:start;writing-mode:lr-tb;text-anchor:start;fill:#ffed00;fill-opacity:1;stroke:none;stroke-width:0.486476px;stroke-linecap:butt;stroke-linejoin:miter;stroke-opacity:1" /></g></g></g></svg>
