<?xml version="1.0" encoding="UTF-8" standalone="no"?>
<!-- Created with Inkscape (http://www.inkscape.org/) -->
<svg
   xmlns:svg="http://www.w3.org/2000/svg"
   xmlns="http://www.w3.org/2000/svg"
   version="1.0"
   width="1830"
   height="930"
   id="svg2">
  <defs
     id="defs4" />
  <g
     id="layer1">
    <path
       d="M 720.91007,50.869133 L 1107.5724,51.630765 L 1572.4397,878.65261 L 256.68876,877.88005 L 720.91007,50.869133 z "
       style="fill:#999;fill-opacity:1;fill-rule:evenodd;stroke:none;stroke-width:1px;stroke-linecap:butt;stroke-linejoin:miter;stroke-opacity:1"
       id="path1888" />
    <path
       d="M 888.00052,156.45953 L 882.76378,236.50676 L 905.20693,236.50676 L 906.70314,156.45953 L 888.00052,156.45953 z "
       style="fill:white;fill-opacity:1;fill-rule:evenodd;stroke:black;stroke-width:1px;stroke-linecap:butt;stroke-linejoin:miter;stroke-opacity:1"
       id="path1899" />
    <path
       d="M 5.3841466,876.37993 L 256.24949,876.37993 L 718.5819,52.379722 L 585.62038,52.379175 L 5.3841466,876.37993 z "
       style="fill:white;fill-opacity:1;fill-rule:evenodd;stroke:black;stroke-width:3;stroke-linecap:butt;stroke-linejoin:miter;stroke-miterlimit:4;stroke-dasharray:none;stroke-opacity:1"
       id="path1882" />
    <path
       d="M 1823.2885,877.15514 L 1572.4231,877.15514 L 1110.0907,53.154928 L 1244.9577,53.704033 L 1823.2885,877.15514 z "
       style="fill:white;fill-opacity:1;fill-rule:evenodd;stroke:black;stroke-width:3;stroke-linecap:butt;stroke-linejoin:miter;stroke-miterlimit:4;stroke-dasharray:none;stroke-opacity:1"
       id="path1884" />
    <path
       d="M 921.65683,833.84751 L 969.73308,833.84751 L 938.05325,51.768906 L 921.72712,51.737453 L 921.65683,833.84751 z "
       style="fill:white;fill-opacity:1;fill-rule:evenodd;stroke:black;stroke-width:1px;stroke-linecap:butt;stroke-linejoin:miter;stroke-opacity:1"
       id="path1891" />
    <path
       d="M 851.34338,837.9831 L 899.9702,837.9831 L 899.22209,678.63675 L 860.32064,678.63675 L 851.34338,837.9831 z "
       style="fill:white;fill-opacity:1;fill-rule:evenodd;stroke:black;stroke-width:1px;stroke-linecap:butt;stroke-linejoin:miter;stroke-opacity:1"
       id="path1893" />
    <path
       d="M 869.29789,475.15222 L 863.31306,576.89449 L 899.9702,576.89449 L 899.78158,475.15859 L 869.29789,475.15222 z "
       style="fill:white;fill-opacity:1;fill-rule:evenodd;stroke:black;stroke-width:1px;stroke-linecap:butt;stroke-linejoin:miter;stroke-opacity:1"
       id="path1895" />
    <path
       d="M 879.02326,295.60704 L 873.03842,387.62395 L 902.21451,387.62395 L 902.21451,295.61341 L 879.02326,295.60704 z "
       style="fill:white;fill-opacity:1;fill-rule:evenodd;stroke:black;stroke-width:1px;stroke-linecap:butt;stroke-linejoin:miter;stroke-opacity:1"
       id="path1897" />
    <path
       d="M 893.23725,61.450211 L 888.74862,104.09219 L 906.70314,104.09219 L 905.95503,61.450211 L 893.23725,61.450211 z "
       style="fill:white;fill-opacity:1;fill-rule:evenodd;stroke:black;stroke-width:1px;stroke-linecap:butt;stroke-linejoin:miter;stroke-opacity:1"
       id="path1901" />
  </g>
</svg>
